{"title":"Goat [1080p] - WEB-DL","uid":15894802,"size":4532794327,"categoryP":"video","categoryS":"hd___movies","magnet":"?xt=urn:btih:f2135feac62218ea8e01ecf221e9b144d31fa8a6&amp;dn=Goat+%5B1080p%5D+-+WEB-DL+&amp;tr=udp%3A%2F%2Ftracker.leechers-paradise.org%3A6969&amp;tr=udp%3A%2F%2Fzer0day.ch%3A1337&amp;tr=udp%3A%2F%2Fopen.demonii.com%3A1337&amp;tr=udp%3A%2F%2Ftracker.coppersurfer.tk%3A6969&amp;tr=udp%3A%2F%2Fexodus.desync.com%3A6969","seeders":7,"leechers":16,"uploader":"fjn61783","files":2,"time":1474783217,"description":"Goat [1080p] - WEB-DL \r\n\r\n*Folder includes English .srt files (subtitles) \r\n\r\nIMDB- http://www.imdb.com/title/tt4437216/?ref_=nv_sr_1 \r\n\r\nFormat : Matroska \r\nFormat version : Version 4 / Version 2 \r\nFile size : 4.22 GiB \r\nDuration : 1 h 42 min \r\nOverall bit rate : 5 888 kb/s \r\n\r\nVideo \r\nID : 2 \r\nFormat : AVC \r\nFormat/Info : Advanced Video Codec \r\nFormat profile :    \r\nFormat settings, CABAC : Yes \r\nFormat settings, ReFrames : 4 frames \r\nCodec ID : V_MPEG4/ISO/AVC \r\nDuration : 1 h 42 min \r\nBit rate : 5 260 kb/s \r\nWidth : 1 916 pixels \r\nHeight : 1 076 pixels \r\nDisplay aspect ratio : 16:9 \r\nFrame rate mode : Constant \r\nFrame rate : 23.976 (23976/1000) FPS \r\nColor space : YUV \r\nChroma subsampling : 4:2:0 \r\nBit depth : 8 bits \r\nScan type : Progressive \r\nBits/(Pixel*Frame) : 0.106 \r\nStream size : 3.77 GiB (89%) \r\nLanguage : English \r\nDefault : Yes \r\nForced : No \r\n\r\nAudio #1 \r\nID : 1 \r\nFormat : AAC \r\nFormat/Info : Advanced Audio Codec \r\nFormat profile : LC \r\nCodec ID : A_AAC \r\nDuration : 1 h 42 min \r\nBit rate : 119 kb/s \r\nChannel(s) : 2 channels \r\nChannel positions : Front: L R \r\nSampling rate : 48.0 kHz \r\nFrame rate : 46.875 FPS (1024 spf) \r\nCompression mode : Lossy \r\nStream size : 87.3 MiB (2%) \r\nLanguage : English \r\nDefault : Yes \r\nForced : No \r\n\r\nAudio #2 \r\nID : 3 \r\nFormat : AC-3 \r\nFormat/Info : Audio Coding 3 \r\nMode extension : CM (complete main) \r\nFormat settings, Endianness : Big \r\nCodec ID : A_AC3 \r\nDuration : 1 h 42 min \r\nBit rate mode : Constant \r\nBit rate : 384 kb/s \r\nChannel(s) : 6 channels \r\nChannel positions : Front: L C R, Side: L R, LFE \r\nSampling rate : 48.0 kHz \r\nFrame rate : 31.250 FPS (1536 spf) \r\nCompression mode : Lossy \r\nStream size : 281 MiB (7%) \r\nLanguage : English \r\nDefault : No \r\nForced : No \r\n\r\nAudio #3 \r\nID : 4 \r\nFormat : AAC \r\nFormat/Info : Advanced Audio Codec \r\nFormat profile : LC \r\nCodec ID : A_AAC \r\nDuration : 1 h 42 min \r\nBit rate : 123 kb/s \r\nChannel(s) : 2 channels \r\nChannel positions : Front: L R \r\nSampling rate : 48.0 kHz \r\nFrame rate : 46.875 FPS (1024 spf) \r\nCompression mode : Lossy \r\nStream size : 90.1 MiB (2%) \r\nLanguage : Spanish \r\nDefault : No \r\nForced : No","torrent":{"xt":"urn:btih:f2135feac62218ea8e01ecf221e9b144d31fa8a6","amp;dn":"Goat+%5B1080p%5D+-+WEB-DL+","amp;tr":["udp%3A%2F%2Ftracker.leechers-paradise.org%3A6969","udp%3A%2F%2Fzer0day.ch%3A1337","udp%3A%2F%2Fopen.demonii.com%3A1337","udp%3A%2F%2Ftracker.coppersurfer.tk%3A6969","udp%3A%2F%2Fexodus.desync.com%3A6969"],"infoHash":"f2135feac62218ea8e01ecf221e9b144d31fa8a6","infoHashBuffer":{"type":"Buffer","data":[242,19,95,234,198,34,24,234,142,1,236,242,33,233,177,68,211,31,168,166]},"announce":[],"urlList":[]}}